<svg id="Layer_1" data-name="Layer 1" xmlns="http://www.w3.org/2000/svg" viewBox="0 0 453.9 82.72"><defs><style>.cls-1,.cls-2{fill:#e88725;}.cls-2{font-size:50px;font-family:BreeSerif-Regular, Bree Serif;}.cls-3{letter-spacing:-0.02em;}.cls-4{letter-spacing:-0.01em;}</style></defs><path class="cls-1" d="M84.58,33.64c5,0,9.12,7.82,9.12,14.44s-4.09,12-9.12,12-9.12-5.37-9.12-12S79.54,33.64,84.58,33.64Z" transform="translate(-30.27 -33.64)"/><path class="cls-1" d="M58.67,33.64c5,0,9.12,7.82,9.12,14.44s-4.08,12-9.12,12-9.11-5.37-9.11-12S53.64,33.64,58.67,33.64Z" transform="translate(-30.27 -33.64)"/><path class="cls-1" d="M31.37,68.56c-2.14-5.46-1.2-13.32,3.07-15.06s10.25,3.3,12.39,8.76S47.24,73.57,43,75.31,33.51,74,31.37,68.56Z" transform="translate(-30.27 -33.64)"/><path class="cls-1" d="M111.88,68.56c-2.14,5.47-7.33,8.49-11.6,6.75s-6-7.58-3.86-13.05,8.13-10.5,12.4-8.76S114,63.1,111.88,68.56Z" transform="translate(-30.27 -33.64)"/><path class="cls-1" d="M104.24,98.74c-1-4.47-3.3-8.51-5.88-12.25-6-8.76-15.72-17.6-26.73-17.6S50.94,77.73,44.9,86.49C42.32,90.23,40,94.27,39,98.74s-.44,9.48,2.27,13.11,7.86,5.45,11.89,3.48c2.39-1.17,4.33-3.52,7-3.75,2.43-.21,4.57,1.46,6.59,2.85a9.41,9.41,0,0,0,4.91,1.93,9.41,9.41,0,0,0,4.9-1.93c2-1.39,4.17-3.06,6.59-2.85,2.64.23,4.57,2.58,7,3.75,4,2,9.16.16,11.88-3.48S105.22,103.21,104.24,98.74Zm-23-5.39a25.12,25.12,0,0,1-4.86,6,31.82,31.82,0,0,1-2.8,2.39h0a3.21,3.21,0,0,1-3.86,0h0a33.34,33.34,0,0,1-2.8-2.39,25.37,25.37,0,0,1-4.86-6,8.67,8.67,0,0,1-1-6.21,5.37,5.37,0,0,1,4.13-4.2c2.3-.29,5,1.36,6.5,3.26,1.51-1.9,4.2-3.55,6.5-3.26a5.37,5.37,0,0,1,4.12,4.2A8.62,8.62,0,0,1,81.22,93.35Z" transform="translate(-30.27 -33.64)"/><text class="cls-2" transform="translate(127.15 60.18)">C<tspan class="cls-3" x="30.1" y="0">a</tspan><tspan class="cls-4" x="57.45" y="0">t</tspan><tspan x="75.8" y="0">ty Pet Shop</tspan></text></svg>